<svg viewBox="0 0 215.484 225.576" xmlns="http://www.w3.org/2000/svg"><path fill="none" pointer-events="none" d="M0 0h215.484v225.576H0z"/><path class="st3" d="M132.638 72.113c0 25.5-22.2 39.5-22.2 39.5s-22.2-14.1-22.2-39.5c0-37.2 22.2-61.5 22.2-61.5s22.2 24.3 22.2 61.5z" opacity=".5" fill="#fd0"/><path class="st4" d="M109.838 66.313c12.7 22.1.6 45.3.6 45.3s-26.2-1.1-39-23.1c-18.6-32.2-11.6-64.3-11.6-64.3s31.4 9.9 50 42.1z" opacity=".5" fill="#8dc63f"/><path class="st4" d="M87.338 72.713c22.1 12.7 23.1 39 23.1 39s-23.2 12.2-45.3-.6c-32.2-18.6-42.2-49.9-42.2-49.9s32.1-7.1 64.4 11.5z" opacity=".5" fill="#8dc63f"/><path class="st5" d="M70.938 89.413c25.5 0 39.5 22.2 39.5 22.2s-14.1 22.2-39.5 22.2c-37.2 0-61.5-22.2-61.5-22.2s24.3-22.2 61.5-22.2z" opacity=".5" fill="#008fd5"/><path class="st5" d="M65.138 112.213c22.1-12.7 45.3-.6 45.3-.6s-1.1 26.2-23.1 39c-32.2 18.6-64.3 11.6-64.3 11.6s9.9-31.4 42.1-50z" opacity=".5" fill="#008fd5"/><path class="st6" d="M71.438 134.813c12.7-22.1 39-23.1 39-23.1s12.2 23.2-.6 45.3c-18.6 32.2-49.9 42.2-49.9 42.2s-7.1-32.2 11.5-64.4z" opacity=".5" fill="#92278f"/><path class="st6" d="M88.238 151.113c0-25.5 22.2-39.5 22.2-39.5s22.2 14.1 22.2 39.5c0 37.2-22.2 61.5-22.2 61.5s-22.2-24.3-22.2-61.5z" opacity=".5" fill="#92278f"/><path class="st7" d="M111.038 156.913c-12.7-22.1-.6-45.3-.6-45.3s26.2 1.1 39 23.1c18.6 32.2 11.6 64.3 11.6 64.3s-31.4-9.9-50-42.1z" opacity=".6" fill="#ed1c24"/><path class="st7" d="M133.538 150.613c-22.1-12.7-23.1-39-23.1-39s23.3-12.2 45.3.6c32.2 18.6 42.2 49.9 42.2 49.9s-32.1 7.1-64.4-11.5z" opacity=".6" fill="#ed1c24"/><path class="st8" d="M149.938 133.813c-25.5 0-39.5-22.2-39.5-22.2s14.1-22.2 39.5-22.2c37.2 0 61.5 22.2 61.5 22.2s-24.3 22.2-61.5 22.2z" opacity=".5" fill="#fdb913"/><path class="st8" d="M155.738 111.013c-22.1 12.7-45.3.6-45.3.6s1.1-26.2 23.2-39c32.2-18.6 64.3-11.6 64.3-11.6s-10 31.4-42.2 50z" opacity=".5" fill="#fdb913"/><path class="st3" d="M149.438 88.513c-12.7 22.1-39 23.1-39 23.1s-12.2-23.3.6-45.3c18.6-32.2 49.9-42.2 49.9-42.2s7.1 32.2-11.5 64.4z" opacity=".5" fill="#fd0"/></svg>